<?xml version="1.0" encoding="utf-8"?>
<!-- Generator: Adobe Illustrator 21.1.0, SVG Export Plug-In . SVG Version: 6.00 Build 0)  -->
<svg version="1.1" id="CARD" xmlns="http://www.w3.org/2000/svg" xmlns:xlink="http://www.w3.org/1999/xlink" x="0px" y="0px"
	 viewBox="0 0 242 62" style="enable-background:new 0 0 242 62;" xml:space="preserve">
<style type="text/css">
	.st0{fill:#6428B4;}
</style>
<g id="LOGO_7_">
	<g id="LOGO_8_">
		<path class="st0" d="M228,7.5V6h-19.5c-2.5,0-4.5,2-4.5,4.5v21c0,2.5,2,4.5,4.5,4.5h15c2.5,0,4.5-2,4.5-4.5V30h-17.2
			c-0.4,0-0.8-0.4-0.8-0.8V24h13.5c2.5,0,4.5-2,4.5-4.5V18h-18v-5.2c0-0.4,0.4-0.8,0.8-0.8h12.7C226,12,228,10,228,7.5z"/>
		<path class="st0" d="M198,16.4C197.9,10.6,193,6,187.2,6l-14.7,0c-2.5,0-4.5,2-4.5,4.5V36h1.5c2.5,0,4.5-2,4.5-4.5V27h11.9
			l4.3,7.5c0.5,0.9,1.5,1.5,2.6,1.5h5.2l-5.8-10.1C195.7,24.2,198.1,20.5,198,16.4z M174.9,12l12.5,0c2.4,0,4.4,1.9,4.6,4.3
			c0.1,2.6-1.9,4.7-4.5,4.7H174v-8.1C174,12.4,174.4,12,174.9,12z"/>
		<path class="st0" d="M76.8,7.2L66.6,17.4c-0.4,0.4-0.9,0.4-1.3,0L55.2,7.2c-0.8-0.8-1.9-1.2-3-1.2h0C49.9,6,48,7.9,48,10.2V36h1.5
			c2.5,0,4.5-2,4.5-4.5V15.4c0-0.4,0.4-0.5,0.7-0.3l8.1,8.1c1.8,1.8,4.6,1.8,6.4,0l8.1-8.1c0.3-0.3,0.7-0.1,0.7,0.3V36h1.5
			c2.5,0,4.5-2,4.5-4.5V10.2C84,7.9,82.1,6,79.8,6h-0.1C78.6,6,77.6,6.4,76.8,7.2z"/>
		<path class="st0" d="M37.5,36H36V10.5C36,8,38,6,40.5,6H42v25.5C42,34,40,36,37.5,36z"/>
		<path class="st0" d="M19.2,6H4.5C2,6,0,8,0,10.5V36h1.5C4,36,6,34,6,31.5V27h13.5c5.7,0,10.4-4.6,10.5-10.3
			C30.1,10.8,25.1,6,19.2,6z M19.4,21L6,21v-8.1C6,12.4,6.4,12,6.9,12h12.6c2.6,0,4.6,2.1,4.5,4.7C23.9,19.1,21.8,21,19.4,21z"/>
	</g>
	<path class="st0" d="M147,6c-5.2,0-9.8,2.7-12.5,6.7l-11,16.6c-2.7,4-7.3,6.7-12.5,6.7c-8.3,0-15-6.7-15-15s6.7-15,15-15
		c5.2,0,9.7,2.6,12.4,6.6l2,3l3.6-5.4l-0.5-0.8C124.7,3.7,118.3,0,111,0C99.4,0,90,9.4,90,21c0,11.6,9.4,21,21,21
		c7.3,0,13.8-3.7,17.5-9.4l4.1-6.2l1.9,2.9c2.7,4,7.3,6.7,12.5,6.7c8.3,0,15-6.7,15-15S155.3,6,147,6z M147,30
		c-3.1,0-5.9-1.6-7.5-4.1l-3.3-4.9l3.3-5c1.6-2.4,4.4-4,7.5-4c5,0,9,4,9,9S152,30,147,30z"/>
</g>
<g id="_x28_R_x29__9_">
	<path class="st0" d="M238.4,8.5c0-0.5-0.5-1-1-1l-1.4,0c-0.2,0-0.4,0.2-0.4,0.4v2.5h0.3c0.2,0,0.3-0.1,0.3-0.3V9.6h1.1l0.5,0.8
		c0,0,0.1,0.1,0.1,0.1h0.6l-0.6-1C238.2,9.3,238.4,8.9,238.4,8.5z M236.2,8.1l1.2,0c0.2,0,0.4,0.2,0.4,0.4c0,0.3-0.2,0.5-0.4,0.5
		h-1.3V8.2C236.1,8.2,236.2,8.1,236.2,8.1z"/>
	<path class="st0" d="M237,6.6c1.3,0,2.4,1.1,2.4,2.4s-1.1,2.4-2.4,2.4s-2.4-1.1-2.4-2.4S235.7,6.6,237,6.6 M237,6c-1.7,0-3,1.3-3,3
		s1.3,3,3,3s3-1.3,3-3S238.7,6,237,6L237,6z"/>
</g>
<g>
	<path class="st0" d="M34.5,52.8c0-3,2.4-5.4,5.4-5.4s5.4,2.4,5.4,5.4c0,3-2.4,5.4-5.4,5.4S34.5,55.8,34.5,52.8z M44.3,52.8
		c0-2.4-1.9-4.4-4.4-4.4s-4.4,2-4.4,4.4c0,2.4,1.9,4.4,4.4,4.4S44.3,55.2,44.3,52.8z"/>
	<path class="st0" d="M57.7,50.5L55.4,58h-1.1l-1.9-6l-1.9,6h-1.1l-2.3-7.5h1l1.8,6.2l2-6.2h1l2,6.2l1.8-6.2H57.7z"/>
	<path class="st0" d="M66.3,53.4V58h-1v-4.6c0-1.3-0.7-2.1-2-2.1c-1.3,0-2.4,0.8-2.4,2.8V58h-1v-7.5h1v1.2c0.6-0.9,1.5-1.4,2.5-1.4
		C65.1,50.3,66.3,51.5,66.3,53.4z"/>
	<path class="st0" d="M75.2,51.5V56c0,1.3,0.7,1.2,2.2,1.1V58c-2,0.3-3.1-0.2-3.1-2v-4.5h-1.6v-1h1.6v-1.8l1-0.3v2.1h2.2v1H75.2z"/>
	<path class="st0" d="M86,53.4V58h-1v-4.6c0-1.3-0.7-2.1-2-2.1c-1.3,0-2.4,0.8-2.4,2.8V58h-1V47.5h1v4.2c0.6-0.9,1.5-1.4,2.5-1.4
		C84.9,50.3,86,51.5,86,53.4z"/>
	<path class="st0" d="M95.9,54.3c0,0.1,0,0.3,0,0.5h-6.6c0.2,1.5,1.4,2.5,3,2.5c1.2,0,2-0.6,2.4-1.3l0.9,0.5c-0.6,1-1.8,1.7-3.3,1.7
		c-2.4,0-4-1.7-4-3.9c0-2.2,1.6-3.9,3.9-3.9C94.5,50.3,95.9,52.2,95.9,54.3z M89.3,53.8h5.6c-0.2-1.6-1.4-2.5-2.7-2.5
		C90.6,51.3,89.5,52.3,89.3,53.8z"/>
	<path class="st0" d="M111.9,52.8c0,2.9-2.1,5.3-4.9,5.3h-4.1V47.5h4.1C109.8,47.5,111.9,49.9,111.9,52.8z M110.9,52.8
		c0-2.4-1.6-4.3-3.9-4.3h-3V57h3C109.3,57,110.9,55.1,110.9,52.8z"/>
	<path class="st0" d="M114.1,48.2c0-0.4,0.3-0.7,0.7-0.7s0.7,0.3,0.7,0.7s-0.3,0.7-0.7,0.7S114.1,48.6,114.1,48.2z M114.3,50.5h1V58
		h-1V50.5z"/>
	<path class="st0" d="M125.6,50.5v7.2c0,2.3-1.8,3.5-3.8,3.5c-1.7,0-3-0.7-3.6-1.8l0.9-0.5c0.4,0.8,1.1,1.4,2.7,1.4
		c1.7,0,2.8-1,2.8-2.5v-1.2c-0.6,1-1.7,1.6-3,1.6c-2.1,0-3.9-1.7-3.9-3.9c0-2.2,1.8-3.9,3.9-3.9c1.3,0,2.4,0.6,3,1.6v-1.5H125.6z
		 M124.6,54.3c0-1.7-1.3-3-3-3s-3,1.3-3,3c0,1.7,1.3,3,3,3S124.6,55.9,124.6,54.3z"/>
	<path class="st0" d="M128.2,48.2c0-0.4,0.3-0.7,0.7-0.7s0.7,0.3,0.7,0.7s-0.3,0.7-0.7,0.7S128.2,48.6,128.2,48.2z M128.4,50.5h1V58
		h-1V50.5z"/>
	<path class="st0" d="M134,51.5V56c0,1.3,0.7,1.2,2.2,1.1V58c-2,0.3-3.1-0.2-3.1-2v-4.5h-1.6v-1h1.6v-1.8l1-0.3v2.1h2.2v1H134z"/>
	<path class="st0" d="M145.5,50.5V58h-1v-1.5c-0.6,1-1.7,1.6-3,1.6c-2.1,0-3.9-1.7-3.9-3.9c0-2.2,1.8-3.9,3.9-3.9
		c1.3,0,2.4,0.6,3,1.6v-1.5H145.5z M144.5,54.3c0-1.7-1.3-3-3-3s-3,1.3-3,3c0,1.7,1.3,3,3,3S144.5,55.9,144.5,54.3z"/>
	<path class="st0" d="M148.4,47.1h1V58h-1V47.1z"/>
	<path class="st0" d="M156.1,47.5h1.1l2.6,9.1l2.7-9.1h1.2l2.7,9.1l2.6-9.1h1.1l-3,10.5h-1.3l-2.7-9.1l-2.7,9.1h-1.3L156.1,47.5z"/>
	<path class="st0" d="M171.4,54.3c0-2.2,1.8-3.9,3.9-3.9c2.2,0,3.9,1.7,3.9,3.9c0,2.2-1.8,3.9-3.9,3.9
		C173.1,58.2,171.4,56.5,171.4,54.3z M178.3,54.3c0-1.7-1.3-3-3-3s-3,1.3-3,3c0,1.7,1.3,3,3,3S178.3,55.9,178.3,54.3z"/>
	<path class="st0" d="M185,50.4v1c-1.2,0-2.4,0.6-2.4,2.5V58h-1v-7.5h1v1.2C183.2,50.7,184.1,50.4,185,50.4z"/>
	<path class="st0" d="M187,47.1h1V58h-1V47.1z"/>
	<path class="st0" d="M198.3,47.5V58h-1v-1.5c-0.6,1-1.7,1.6-3,1.6c-2.1,0-3.9-1.7-3.9-3.9c0-2.2,1.8-3.9,3.9-3.9
		c1.3,0,2.4,0.6,3,1.6v-4.5H198.3z M197.3,54.3c0-1.7-1.3-3-3-3s-3,1.3-3,3c0,1.7,1.3,3,3,3S197.3,55.9,197.3,54.3z"/>
</g>
</svg>
